<svg xmlns="http://www.w3.org/2000/svg" viewBox="0 0 512 512" width="512" height="512">
  <defs>
    <linearGradient id="bg" x1="0" y1="0" x2="0.35" y2="1">
      <stop offset="0" stop-color="#3B2849"/>
      <stop offset="1" stop-color="#6B4A8F"/>
    </linearGradient>
  </defs>
  <rect width="512" height="512" fill="url(#bg)"/>
  <g transform="translate(120,82) scale(8.5)" fill="none" stroke="#F7F5FB" stroke-width="2" stroke-linecap="round" stroke-linejoin="round">
    <path d="M16 7.5V3"/>
    <path d="M15.5 6.5L11.5 3.5"/>
    <path d="M16.5 6.5L20.5 3.5"/>
    <path d="M16 9C9.5 9 5.5 15 5.5 21C5.5 28.5 10.5 35 16 39C21.5 35 26.5 28.5 26.5 21C26.5 15 22.5 9 16 9Z"/>
  </g>
  <g transform="translate(120,82) scale(8.5)" fill="#F7F5FB">
    <rect x="9.5" y="18.5" width="2" height="8" rx="1"/>
    <rect x="12.25" y="16.5" width="2" height="12" rx="1"/>
    <rect x="15" y="14.5" width="2" height="16" rx="1"/>
    <rect x="17.75" y="17.5" width="2" height="10" rx="1"/>
    <rect x="20.5" y="19.5" width="2" height="6" rx="1"/>
  </g>
</svg>